PathFileType	4	(X/Y/Z)	Patient4_TMGait_0pt4_02_left_40.trc.trc
DataRate	CameraRate	NumFrames	NumMarkers	Units	OrigDataRate	OrigDataStartFrame	OrigNumFrames
79.545454545455	79.545454545455	4	33	mm	79.545454545455	53	       141
Frame#	Time	Sacral			L.Shoulder			Chest			R.Shoulder			Neck			R.ASIS			L.ASIS			R.Thigh.Superior			R.Thigh.Lateral			R.Thigh.Inferior			R.Patella			L.Thigh.Superior			L.Thigh.Lateral			L.Thigh.Inferior			L.Patella			L.Shank.Superior			L.Shank.Lateral			L.Shank.Inferior			R.Shank.Superior			R.Shank.Lateral			R.Shank.Inferior			R.Heel			R.Midfoot.Superior			R.Midfoot.Lateral			R.Toe			L.Heel			L.Midfoot.Lateral			L.Midfoot.Superior			L.Toe			L.Elbow			L.Wrist			R.Elbow			R.Wrist			
		X1	Y1	Z1	X2	Y2	Z2	X3	Y3	Z3	X4	Y4	Z4	X5	Y5	Z5	X6	Y6	Z6	X7	Y7	Z7	X8	Y8	Z8	X9	Y9	Z9	X10	Y10	Z10	X11	Y11	Z11	X12	Y12	Z12	X13	Y13	Z13	X14	Y14	Z14	X15	Y15	Z15	X16	Y16	Z16	X17	Y17	Z17	X18	Y18	Z18	X19	Y19	Z19	X20	Y20	Z20	X21	Y21	Z21	X22	Y22	Z22	X23	Y23	Z23	X24	Y24	Z24	X25	Y25	Z25	X26	Y26	Z26	X27	Y27	Z27	X28	Y28	Z28	X29	Y29	Z29	X30	Y30	Z30	X31	Y31	Z31	X32	Y32	Z32	X33	Y33	Z33	

53	54.053714285714	834.248559832481	1006.940621078220	446.742889221888	986.404060262329	1436.057500736479	249.059669993348	1093.638663317808	1381.025442725991	411.661096101280	1007.008388378671	1451.781274950074	585.284730126028	963.632246897459	1502.533789410323	406.193778862697	1066.521300030831	954.164296719883	561.483407766568	1049.217090860613	968.725000593010	287.508322657534	1140.368903528528	770.846285080565	545.175298373546	1087.163996078552	654.314573575541	623.909450532500	1177.623177083611	606.133959237375	552.699459545568	1187.853550397198	497.204020769268	579.660220193091	1089.324273833854	750.808486515955	311.693687117511	988.314228563075	638.684669391809	258.103787913391	1073.716201066033	557.230440583662	311.960694200261	1071.002592215971	488.610612920680	321.774128332809	1041.580208138306	416.959433240558	317.890234274636	943.492994657192	305.420283735485	275.972373222725	997.132656537311	193.367436649471	345.311909585474	1114.779448053122	422.419049599789	589.072271615993	996.611907720478	380.737603957810	654.407355650250	985.611179371661	269.405994872687	609.486462005413	787.018282269044	193.777132241388	590.280905851033	961.695141345629	152.659232368598	629.232921604994	852.534069763162	139.788930107640	662.542055780334	1036.704235601218	45.325771400222	653.489799173482	867.775874767924	39.658540751761	397.944879727298	937.804804497956	35.595183726749	313.792928607272	1022.788136315792	96.243682954825	335.863127524242	1149.526628954915	43.240628050216	302.264975424793	1010.543696109946	1085.889702844558	123.863992327917	1148.231323984983	861.408974863964	127.036183431882	1033.648399586014	1103.323177454967	709.221479012370	1196.528075704428	901.150727231882	686.833416577577	
54	54.066285714286	833.549111782854	1007.338939364853	445.780496418072	986.980733238542	1436.247738984293	248.065889761279	1093.436948171398	1381.280467809763	411.198962827118	1006.037293132717	1452.100560533922	584.408616305324	963.638701442142	1502.796160001087	405.136230154208	1065.752162311274	955.049246883369	561.061403922772	1049.220039732248	969.136031373826	286.950685978744	1141.157155010858	773.177519200466	544.273081655861	1089.970527251380	656.344208169243	623.817333052075	1180.386430879956	609.017844947802	552.084185322030	1192.571126368206	500.673126580652	579.281302296665	1087.522804299567	750.057332531929	312.151791716063	985.374688883623	638.773322231664	258.113923476044	1069.442168379460	556.575474566529	312.807618392375	1065.937385370907	488.275859053790	322.847545716531	1036.812318387749	416.913459721261	318.564832039977	939.033198927243	305.370328948031	276.188824554547	992.303608683658	193.327131535948	345.765548408719	1121.181149332327	424.639739645469	589.491856289558	1004.669530652480	380.255584374853	655.828330206281	996.005829711398	268.601094804380	611.319527198755	799.336892339057	188.303673930194	593.839608410704	975.073504466697	151.114747935303	631.588118425159	866.529450955666	136.089838034445	665.823084442342	1052.521686594789	45.689499399164	655.742790950974	862.687899402478	39.617145670971	397.962120052222	932.718767318421	35.613804023250	313.815584672439	1017.716454195979	96.249262306253	335.926560824086	1144.454829075305	43.220814475287	302.225766398886	1015.944609608173	1086.796298425250	122.049543653741	1161.862311953883	867.474850030776	126.520128917505	1024.005395203957	1103.434608309505	709.308895895617	1173.185755720268	889.782050859169	692.848572675063	
55	54.078857142857	832.853385723205	1007.653494804585	444.957894417501	987.683850181878	1436.392397500137	247.283387221856	1093.379711879248	1381.371195696626	410.898597198502	1005.284009448616	1452.238321346376	583.737733197440	963.802558650569	1502.950926794097	404.330780839717	1064.956878513299	955.808564079417	560.780683472939	1049.295004730052	969.451011559564	286.502944063654	1141.626999575934	775.172355633839	543.440120825658	1092.315297219600	658.138397720287	623.779738687088	1182.447528807212	611.502027705594	551.349930428228	1196.581283671963	503.937421014313	578.752877999613	1085.705771711771	749.250195455712	312.933191336459	982.606851259629	638.779597072127	258.205238641255	1065.234270091846	555.882097788157	313.856073567412	1060.925099226217	487.902483766045	324.089352711842	1032.103955021097	416.811767507282	319.367978449231	934.680907596585	305.264415410452	276.418864297303	987.498575562859	193.242108582749	346.295858995115	1127.178229412863	426.601755320402	589.889642640351	1012.774142199507	379.028072384857	657.453828228120	1006.920272199284	267.058003047506	613.321169756727	812.664169813113	181.174670402739	597.876413588232	989.586498481065	148.815687732965	634.131878633896	881.855440280222	131.225260093592	669.541954427016	1069.992546714227	45.845170993433	658.232856952455	857.600493279302	39.544192334434	397.996563634530	927.624520783673	35.621658867201	313.842477133266	1012.631518129543	96.245581096025	336.027377160973	1139.376226841713	43.222172588533	302.202776344840	1020.887970723527	1087.707259768250	120.433727002862	1175.269656726362	874.168632000167	126.147146724673	1014.102762193328	1103.594935802571	709.385977631588	1149.308758275711	879.919343157221	698.822026236225	
56	54.091428571429	832.154502943436	1007.877532567170	444.252025620720	988.543716335199	1436.465678608883	246.708792961878	1093.476809103325	1381.280575720341	410.774221988963	1004.738091784612	1452.190650934750	583.273946954992	964.136062524868	1502.987514534948	403.769992074790	1064.108011908031	956.402078441160	560.653610371623	1049.413599520544	969.634552051054	286.196253862363	1141.771325507016	776.802420672282	542.699502724587	1094.193099936934	659.679703030705	623.828231144709	1183.811075800578	613.554911407004	550.534814786386	1199.892577599342	506.967129518843	578.110040526126	1083.858583172952	748.388142372563	314.000905446417	980.001253430311	638.710242790028	258.351970557547	1061.091598754980	555.155779915392	315.052052209695	1055.970886957202	487.493559493837	325.438384040645	1027.445260103120	416.655606892319	320.253658515773	930.411659686470	305.107518959846	276.641740996090	982.705757623079	193.115017083429	346.873048255590	1132.764781036686	428.310875580199	590.262027008408	1020.920138142323	377.144393701044	659.238845806169	1018.307660223284	264.913794784650	615.418892288904	827.003689851896	172.651475304162	602.248630335076	1005.140782439094	145.965843590980	636.755137667080	898.442858248347	125.427101270096	673.546380296159	1088.938873097396	45.957998722774	660.801292046344	852.512495133598	39.440966996852	398.043794341353	922.523004967897	35.616836066022	313.869236627045	1007.532073200117	96.232621524471	336.158275789201	1134.289881112777	43.248660639832	302.196811016927	1025.380626076295	1088.574731901470	119.003263682656	1188.367885236974	881.458347076036	125.910850344747	1003.968985501563	1103.820281785674	709.436962404327	1125.154633175554	871.606268469223	704.623803591566	
